<svg width="25" height="28" viewBox="0 0 25 28" fill="none" xmlns="http://www.w3.org/2000/svg">
    <path d="M22 1H8C7.46957 1 6.96086 1.21071 6.58579 1.58579C6.21071 1.96086 6 2.46957 6 3V20C6 20.5304 6.21071 21.0391 6.58579 21.4142C6.96086 21.7893 7.46957 22 8 22H22C22.5304 22 23.0391 21.7893 23.4142 21.4142C23.7893 21.0391 24 20.5304 24 20V3C24 2.46957 23.7893 1.96086 23.4142 1.58579C23.0391 1.21071 22.5304 1 22 1Z" fill="white" stroke="white" stroke-width="2"/>
    <path d="M17.961 27H19H3C1.895 27 1 26.182 1 25.174V6V8.74" stroke="white" stroke-width="2" stroke-linecap="round" stroke-linejoin="round"/>
</svg>
