<svg viewBox="0 0 21 20" fill="none" xmlns="http://www.w3.org/2000/svg">
    <path fill-rule="evenodd" clip-rule="evenodd" d="M5.1 0.00106577H15.15C17.8694 -0.0219113 20.1085 2.13279 20.19 4.85107V12.1311C20.1084 14.8533 17.8633 17.0095 15.14 16.9811H13.58C13.1914 16.9823 12.824 17.1586 12.58 17.4611L11.1 19.3411C10.853 19.6384 10.4865 19.8104 10.1 19.8104C9.71347 19.8104 9.34698 19.6384 9.1 19.3411L7.61 17.4611C7.36598 17.1586 6.99862 16.9823 6.61 16.9811H5.1C2.35739 17.0371 0.0817222 14.873 0 12.1311V4.85107C0.0817222 2.1091 2.35739 -0.0550155 5.1 0.00106577ZM6.35 10.4811C6.76421 10.4811 7.1 10.1453 7.1 9.73107V7.33107C7.1 6.91685 6.76421 6.58107 6.35 6.58107C5.93579 6.58107 5.6 6.91685 5.6 7.33107V9.73107C5.6 10.1453 5.93579 10.4811 6.35 10.4811ZM10.85 9.73107C10.85 10.1453 10.5142 10.4811 10.1 10.4811C9.68579 10.4811 9.35 10.1453 9.35 9.73107V7.33107C9.35 6.91685 9.68579 6.58107 10.1 6.58107C10.5142 6.58107 10.85 6.91685 10.85 7.33107V9.73107ZM13.85 10.4811C14.2642 10.4811 14.6 10.1453 14.6 9.73107V7.33107C14.6 6.91685 14.2642 6.58107 13.85 6.58107C13.4358 6.58107 13.1 6.91685 13.1 7.33107V9.73107C13.1 10.1453 13.4358 10.4811 13.85 10.4811Z" fill="currentColor"/>
</svg>
