<svg viewBox="0 0 20 20" fill="none" xmlns="http://www.w3.org/2000/svg">
    <path fill-rule="evenodd" clip-rule="evenodd" d="M5.05201 0.00107597H15.0074C17.7012 -0.022121 19.9193 2.1532 20 4.8975V12.2472C19.9192 14.9955 17.6952 17.1723 14.9975 17.1436H13.4522C13.0673 17.1448 12.7033 17.3228 12.4616 17.6282L10.9955 19.5262C10.7509 19.8264 10.3878 20 10.005 20C9.62206 20 9.25902 19.8264 9.01436 19.5262L7.53839 17.6282C7.29666 17.3228 6.93276 17.1448 6.5478 17.1436H5.05201C2.33521 17.2002 0.0809531 15.0153 0 12.2472V4.8975C0.0809531 2.12929 2.33521 -0.055542 5.05201 0.00107597ZM6.29024 10.5814C6.70055 10.5814 7.03318 10.2424 7.03318 9.8242V7.40123C7.03318 6.98305 6.70055 6.64406 6.29024 6.64406C5.87993 6.64406 5.5473 6.98305 5.5473 7.40123V9.8242C5.5473 10.2424 5.87993 10.5814 6.29024 10.5814ZM10.7479 9.8242C10.7479 10.2424 10.4153 10.5814 10.005 10.5814C9.59464 10.5814 9.26201 10.2424 9.26201 9.8242V7.40123C9.26201 6.98305 9.59464 6.64406 10.005 6.64406C10.4153 6.64406 10.7479 6.98305 10.7479 7.40123V9.8242ZM13.7197 10.5814C14.13 10.5814 14.4626 10.2424 14.4626 9.8242V7.40123C14.4626 6.98305 14.13 6.64406 13.7197 6.64406C13.3094 6.64406 12.9767 6.98305 12.9767 7.40123V9.8242C12.9767 10.2424 13.3094 10.5814 13.7197 10.5814Z" fill="currentColor"/>
</svg>
