<svg viewBox="0 0 21 16" fill="none" xmlns="http://www.w3.org/2000/svg">
    <path d="M20.0146 15.2305C19.5693 14.7148 19.1475 14.2959 18.749 13.9736C18.3564 13.6455 17.917 13.3555 17.4307 13.1035L17.7383 12.4707C18.1543 12.6816 18.5498 12.9189 18.9248 13.1826C19.3057 13.4463 19.666 13.7568 20.0059 14.1143V5.20215L19.6016 4.65723C19.4023 4.38184 19.2148 4.16211 19.0391 3.99805C18.8691 3.82812 18.6816 3.67285 18.4766 3.53223C17.8438 3.09863 17.2197 2.70312 16.6045 2.3457C15.9951 1.98828 15.4531 1.7041 14.9785 1.49316C14.5039 1.27637 14.1582 1.16797 13.9414 1.16797C13.8125 1.16797 13.6074 1.23535 13.3262 1.37012C13.0449 1.49902 12.7578 1.66602 12.4648 1.87109C12.1426 2.09961 11.8818 2.31641 11.6826 2.52148C11.4893 2.72656 11.3691 2.89941 11.3223 3.04004C11.1523 3.53809 11.0176 4.04492 10.918 4.56055C10.8242 5.07617 10.7773 5.49219 10.7773 5.80859C10.7773 6.16602 10.7979 6.40918 10.8389 6.53809C10.8799 6.66113 10.9766 6.72266 11.1289 6.72266C11.334 6.72266 11.5098 6.61719 11.6562 6.40625C11.8086 6.18945 12.0049 5.78809 12.2451 5.20215C12.7021 4.87402 13.25 4.70996 13.8887 4.70996C14.3398 4.70996 14.75 4.8418 15.1191 5.10547C15.4941 5.36914 15.793 5.72363 16.0156 6.16895C16.2383 6.6084 16.3496 7.10352 16.3496 7.6543C16.3496 8.39844 16.124 9.04883 15.6729 9.60547C15.2217 10.1562 14.4893 10.7012 13.4756 11.2402L13.2119 11.3809C12.6025 11.7031 12.125 11.9961 11.7793 12.2598C11.4336 12.5176 11.1904 12.7695 11.0498 13.0156C10.9092 13.2617 10.8389 13.5342 10.8389 13.833C10.8389 14.0029 10.8857 14.1436 10.9795 14.2549C11.0732 14.3721 11.1875 14.4307 11.3223 14.4307C11.4863 14.4307 11.6855 14.3398 11.9199 14.1582C12.1602 13.9824 12.4561 13.7773 12.8076 13.543C13.1592 13.3027 13.5811 13.0947 14.0732 12.9189C14.5654 12.7373 15.1484 12.6465 15.8223 12.6465C16.3906 12.6465 16.8301 12.6201 17.1406 12.5674C17.457 12.5088 17.7031 12.4004 17.8789 12.2422C18.0605 12.0781 18.2305 11.8379 18.3887 11.5215L19.0215 11.8203C18.8164 12.2422 18.5908 12.5645 18.3447 12.7871C18.0986 13.0039 17.7764 13.1533 17.3779 13.2354C16.9854 13.3115 16.4668 13.3496 15.8223 13.3496C15.1484 13.3496 14.5918 13.4404 14.1523 13.6221C13.7129 13.7979 13.3379 14.0029 13.0273 14.2373C12.7227 14.4775 12.4414 14.6855 12.1836 14.8613C11.9258 15.043 11.6387 15.1338 11.3223 15.1338C10.9941 15.1338 10.7217 15.0195 10.5049 14.791C10.2939 14.5625 10.1885 14.2432 10.1885 13.833C10.1885 13.4053 10.2734 13.0215 10.4434 12.6816C10.6191 12.3418 10.9062 12.0166 11.3047 11.7061C11.709 11.3955 12.251 11.0703 12.9307 10.7305L13.1943 10.5986C14.0674 10.1592 14.6943 9.71094 15.0752 9.25391C15.4561 8.79102 15.6465 8.25781 15.6465 7.6543C15.6465 7.23828 15.5674 6.86328 15.4092 6.5293C15.251 6.18945 15.04 5.91992 14.7764 5.7207C14.5127 5.51562 14.2168 5.41309 13.8887 5.41309C13.6602 5.41309 13.4609 5.43652 13.291 5.4834C13.127 5.52441 12.9688 5.58594 12.8164 5.66797C12.541 6.31836 12.2803 6.77539 12.0342 7.03906C11.7881 7.29688 11.4863 7.42578 11.1289 7.42578C10.7539 7.42578 10.4844 7.29102 10.3203 7.02148C10.1562 6.75195 10.0742 6.34766 10.0742 5.80859C10.0742 5.44531 10.1328 4.98535 10.25 4.42871C10.3672 3.87207 10.502 3.34473 10.6543 2.84668C10.8066 2.34863 11.2842 1.83301 12.0869 1.2998C12.4854 1.03613 12.8428 0.831055 13.1592 0.68457C13.4814 0.538086 13.7422 0.464844 13.9414 0.464844C14.1289 0.464844 14.4014 0.532227 14.7588 0.666992C15.1162 0.801758 15.5264 0.986328 15.9893 1.2207C16.4521 1.44922 16.9326 1.71289 17.4307 2.01172C17.9287 2.31055 18.4092 2.62402 18.8721 2.95215C19.0771 3.09277 19.2588 3.23926 19.417 3.3916C19.5752 3.54395 19.751 3.74609 19.9443 3.99805C20.1436 4.24414 20.3984 4.59277 20.709 5.04395V15.2305H20.0146ZM0.142578 15.2305V5.04395C0.458984 4.59277 0.713867 4.24414 0.907227 3.99805C1.10059 3.74609 1.27637 3.54395 1.43457 3.3916C1.59863 3.23926 1.78027 3.09277 1.97949 2.95215C2.44238 2.62402 2.92285 2.31055 3.4209 2.01172C3.91895 1.71289 4.39941 1.44922 4.8623 1.2207C5.3252 0.986328 5.73535 0.801758 6.09277 0.666992C6.45605 0.532227 6.72852 0.464844 6.91016 0.464844C7.10938 0.464844 7.37012 0.538086 7.69238 0.68457C8.01465 0.831055 8.37207 1.03613 8.76465 1.2998C9.56738 1.83301 10.0449 2.34863 10.1973 2.84668C10.3496 3.34473 10.4844 3.87207 10.6016 4.42871C10.7188 4.98535 10.7773 5.44531 10.7773 5.80859C10.7773 6.34766 10.6953 6.75195 10.5312 7.02148C10.3672 7.29102 10.0977 7.42578 9.72266 7.42578C9.36523 7.42578 9.06348 7.29688 8.81738 7.03906C8.57129 6.77539 8.31055 6.31836 8.03516 5.66797C7.88281 5.58594 7.72168 5.52441 7.55176 5.4834C7.3877 5.43652 7.19141 5.41309 6.96289 5.41309C6.64062 5.41309 6.34473 5.51562 6.0752 5.7207C5.81152 5.91992 5.60059 6.18945 5.44238 6.5293C5.28418 6.86328 5.20508 7.23828 5.20508 7.6543C5.20508 8.25781 5.39551 8.79102 5.77637 9.25391C6.15723 9.71094 6.78418 10.1592 7.65723 10.5986L7.9209 10.7305C8.60059 11.0703 9.13965 11.3955 9.53809 11.7061C9.94238 12.0166 10.2295 12.3418 10.3994 12.6816C10.5752 13.0215 10.6631 13.4053 10.6631 13.833C10.6631 14.2432 10.5547 14.5625 10.3379 14.791C10.127 15.0195 9.85742 15.1338 9.5293 15.1338C9.21289 15.1338 8.92578 15.043 8.66797 14.8613C8.41016 14.6855 8.12598 14.4775 7.81543 14.2373C7.51074 14.0029 7.13867 13.7979 6.69922 13.6221C6.25977 13.4404 5.70312 13.3496 5.0293 13.3496C4.38477 13.3496 3.86621 13.3115 3.47363 13.2354C3.08105 13.1533 2.75879 13.0039 2.50684 12.7871C2.26074 12.5645 2.03516 12.2422 1.83008 11.8203L2.46289 11.5215C2.62109 11.8379 2.78809 12.0781 2.96387 12.2422C3.14551 12.4004 3.39453 12.5088 3.71094 12.5674C4.02734 12.6201 4.4668 12.6465 5.0293 12.6465C5.70312 12.6465 6.28613 12.7373 6.77832 12.9189C7.27051 13.0947 7.69238 13.3027 8.04395 13.543C8.39551 13.7773 8.68848 13.9824 8.92285 14.1582C9.16309 14.3398 9.36523 14.4307 9.5293 14.4307C9.66406 14.4307 9.77832 14.3721 9.87207 14.2549C9.96582 14.1436 10.0127 14.0029 10.0127 13.833C10.0127 13.5342 9.94238 13.2617 9.80176 13.0156C9.66113 12.7695 9.41797 12.5176 9.07227 12.2598C8.72656 11.9961 8.24902 11.7031 7.63965 11.3809L7.37598 11.2402C6.3623 10.7012 5.62988 10.1562 5.17871 9.60547C4.72754 9.04883 4.50195 8.39844 4.50195 7.6543C4.50195 7.10352 4.61328 6.6084 4.83594 6.16895C5.05859 5.72363 5.35449 5.36914 5.72363 5.10547C6.09863 4.8418 6.51172 4.70996 6.96289 4.70996C7.60156 4.70996 8.14941 4.87402 8.60645 5.20215C8.84668 5.78809 9.04297 6.18945 9.19531 6.40625C9.34766 6.61719 9.52344 6.72266 9.72266 6.72266C9.875 6.72266 9.97168 6.66113 10.0127 6.53809C10.0537 6.40918 10.0742 6.16602 10.0742 5.80859C10.0742 5.49219 10.0244 5.07617 9.9248 4.56055C9.83105 4.04492 9.69922 3.53809 9.5293 3.04004C9.48242 2.89941 9.3623 2.72656 9.16895 2.52148C8.97559 2.31641 8.71484 2.09961 8.38672 1.87109C8.09375 1.66602 7.80664 1.49902 7.52539 1.37012C7.25 1.23535 7.04492 1.16797 6.91016 1.16797C6.69336 1.16797 6.34766 1.27637 5.87305 1.49316C5.39844 1.7041 4.85352 1.98828 4.23828 2.3457C3.62891 2.70312 3.00781 3.09863 2.375 3.53223C2.16992 3.67285 1.98242 3.82812 1.8125 3.99805C1.64258 4.16211 1.45508 4.38184 1.25 4.65723L0.845703 5.20215V14.1143C1.19141 13.7568 1.55176 13.4463 1.92676 13.1826C2.30762 12.9189 2.70312 12.6816 3.11328 12.4707L3.4209 13.1035C2.94043 13.3555 2.50098 13.6455 2.10254 13.9736C1.70996 14.2959 1.28809 14.7148 0.836914 15.2305H0.142578ZM10.0918 4.70117L8.33398 3.40918C7.8125 3.02832 7.33789 2.83789 6.91016 2.83789C6.71094 2.83789 6.49414 2.87598 6.25977 2.95215C6.03125 3.02832 5.80566 3.13379 5.58301 3.26855L3.86035 4.28809L3.52637 3.72559L5.24023 2.70605C5.82031 2.36035 6.37695 2.1875 6.91016 2.1875C7.19141 2.1875 7.48145 2.24316 7.78027 2.35449C8.08496 2.46582 8.39844 2.6416 8.7207 2.88184L10.417 4.13867L10.0918 4.70117ZM10.7598 4.70117L10.4346 4.13867L12.1309 2.88184C12.4531 2.6416 12.7637 2.46582 13.0625 2.35449C13.3672 2.24316 13.6602 2.1875 13.9414 2.1875C14.4746 2.1875 15.0312 2.36035 15.6113 2.70605L17.3252 3.72559L16.9912 4.28809L15.2686 3.26855C15.0459 3.13379 14.8174 3.02832 14.583 2.95215C14.3545 2.87598 14.1406 2.83789 13.9414 2.83789C13.5137 2.83789 13.0391 3.02832 12.5176 3.40918L10.7598 4.70117Z" fill="currentColor"/>
</svg>
