<svg viewBox="0 0 58 58" fill="none" xmlns="http://www.w3.org/2000/svg">
    <path d="M12.9992 6.6002C12.9992 9.9986 10.7272 12.9234 6.59602 12.9234C2.70802 12.9234 0.199219 10.165 0.199219 6.7666C0.199219 3.2786 2.63122 0.200195 6.59922 0.200195C10.5672 0.200195 12.9224 3.1122 12.9992 6.6002ZM0.199219 57.8002V16.2002H12.9992V57.8002H0.199219ZM19.3992 30.421C19.3992 25.477 19.236 21.3458 19.0728 17.7778H30.5736L31.1432 23.2914H31.3864C33.0056 20.6962 36.9736 16.8914 43.6168 16.8914C51.7192 16.8914 57.7992 22.3154 57.7992 33.9858V57.8002H44.9992V35.845C44.9992 30.7442 43.0568 26.853 38.5992 26.853C35.2008 26.853 33.4984 29.605 32.6056 31.8738C32.2792 32.6866 32.1992 33.8194 32.1992 34.9554V57.8002H19.3992V30.421Z" fill="currentColor"/>
</svg>
