<svg viewBox="0 0 142 31" fill="none" xmlns="http://www.w3.org/2000/svg">
    <path d="M122.618 18.9204C122.991 18.9204 123.271 18.987 123.458 19.1204C123.671 19.2537 123.818 19.4404 123.898 19.6804C124.005 19.9204 124.058 20.187 124.058 20.4804C124.058 20.747 124.045 21.0137 124.018 21.2804C124.658 21.2537 125.271 21.107 125.858 20.8404C126.445 20.547 127.031 20.227 127.618 19.8804C128.205 19.507 128.791 19.1604 129.378 18.8404C129.965 18.5204 130.565 18.307 131.178 18.2004C131.685 18.1204 132.205 18.0937 132.738 18.1204C133.271 18.147 133.805 18.2004 134.338 18.2804C134.898 18.3604 135.431 18.4537 135.938 18.5604C136.471 18.6404 136.991 18.707 137.498 18.7604C137.711 18.787 137.965 18.8004 138.258 18.8004C138.578 18.7737 138.885 18.7737 139.178 18.8004C139.498 18.8004 139.791 18.827 140.058 18.8804C140.351 18.9337 140.591 19.027 140.778 19.1604C141.018 19.347 141.165 19.6004 141.218 19.9204C141.271 20.2137 141.205 20.4804 141.018 20.7204C140.805 21.0137 140.525 21.1604 140.178 21.1604C139.831 21.1604 139.498 21.1604 139.178 21.1604C138.538 21.1337 137.898 21.067 137.258 20.9604C136.618 20.8537 135.978 20.7604 135.338 20.6804C134.698 20.5737 134.058 20.4937 133.418 20.4404C132.778 20.3604 132.151 20.347 131.538 20.4004C130.978 20.5337 130.418 20.7204 129.858 20.9604C129.325 21.2004 128.791 21.4537 128.258 21.7204C127.725 21.987 127.191 22.2537 126.658 22.5204C126.151 22.787 125.618 23.0137 125.058 23.2004C124.738 23.307 124.391 23.387 124.018 23.4404C123.671 23.5204 123.325 23.507 122.978 23.4004C122.311 23.187 121.951 22.8537 121.898 22.4004C121.818 21.9204 121.818 21.4137 121.898 20.8804C121.738 20.7204 121.631 20.5337 121.578 20.3204C121.525 20.0804 121.538 19.867 121.618 19.6804C121.671 19.467 121.778 19.2937 121.938 19.1604C122.098 19.0004 122.325 18.9204 122.618 18.9204Z" fill="currentColor"/>
    <path d="M90.696 22.1604C90.0826 20.6671 89.3893 19.2271 88.616 17.8404C87.8693 16.4537 86.9893 15.1604 85.976 13.9604C85.656 13.6137 85.3093 13.2671 84.936 12.9204C84.5626 12.5737 84.1626 12.2671 83.736 12.0004C83.336 11.7071 82.896 11.4937 82.416 11.3604C81.936 11.2004 81.4426 11.1337 80.936 11.1604C80.696 11.1071 80.4693 11.0537 80.256 11.0004C80.0693 10.9204 79.9226 10.7337 79.816 10.4404C79.7093 10.1204 79.7093 9.86706 79.816 9.6804C79.9226 9.46706 80.0693 9.29373 80.256 9.16039C80.4693 9.02706 80.7093 8.93373 80.976 8.88039C81.2426 8.80039 81.4826 8.73373 81.696 8.6804C83.136 8.30706 84.576 7.97373 86.016 7.6804C87.456 7.3604 88.896 7.05373 90.336 6.76039C95.0826 5.80039 99.816 4.94706 104.536 4.20039C109.283 3.45373 114.056 2.82706 118.856 2.32039C121.523 2.02706 124.176 1.78706 126.816 1.60039C129.456 1.41373 132.109 1.42706 134.776 1.64039C135.016 1.64039 135.269 1.66706 135.536 1.72039C135.829 1.74706 136.083 1.82706 136.296 1.96039C136.536 2.06706 136.709 2.22706 136.816 2.4404C136.923 2.62706 136.896 2.89373 136.736 3.24039C136.629 3.48039 136.483 3.65373 136.296 3.76039C136.109 3.84039 135.896 3.89373 135.656 3.92039C135.443 3.94706 135.216 3.94706 134.976 3.92039C134.736 3.86706 134.523 3.84039 134.336 3.84039C132.923 3.76039 131.523 3.73373 130.136 3.76039C128.749 3.78706 127.349 3.85373 125.936 3.96039C122.096 4.22706 118.283 4.60039 114.496 5.08039C110.736 5.56039 106.949 6.10706 103.136 6.72039C100.069 7.20039 97.0026 7.70706 93.936 8.24039C90.896 8.77373 87.8693 9.41373 84.856 10.1604C85.496 10.5604 86.096 11.0537 86.656 11.6404C87.216 12.2004 87.736 12.8137 88.216 13.4804C88.696 14.1204 89.136 14.7737 89.536 15.4404C89.936 16.1071 90.3093 16.7471 90.656 17.3604C91.4293 18.8004 92.1493 20.3071 92.816 21.8804C93.5893 21.8004 94.3626 21.7204 95.136 21.6404C95.9093 21.5337 96.6826 21.4271 97.456 21.3204L100.096 17.3204L104.336 11.0004L105.296 9.56039C105.483 9.24039 105.736 9.06706 106.056 9.04039C106.376 8.98706 106.656 9.04039 106.896 9.20039C107.136 9.33373 107.296 9.53373 107.376 9.80039C107.483 10.0671 107.429 10.3604 107.216 10.6804L100.376 21.0004L106.576 20.2804C108.416 20.0671 110.243 19.8804 112.056 19.7204C113.896 19.5337 115.736 19.3471 117.576 19.1604C119.096 19.0004 120.643 18.8804 122.216 18.8004C122.509 18.8004 122.789 18.8804 123.056 19.0404C123.349 19.2004 123.563 19.4004 123.696 19.6404C123.829 19.8804 123.856 20.1204 123.776 20.3604C123.696 20.6004 123.456 20.8004 123.056 20.9604C122.656 21.0937 122.203 21.1471 121.696 21.1204C121.216 21.0937 120.776 21.1071 120.376 21.1604C119.389 21.2137 118.403 21.2937 117.416 21.4004C116.456 21.4804 115.483 21.5604 114.496 21.6404C112.389 21.8537 110.296 22.0671 108.216 22.2804C106.136 22.4937 104.056 22.7204 101.976 22.9604L98.816 23.2804L95.096 28.8804C94.6426 29.5471 94.2293 29.7737 93.856 29.5604C93.5093 29.3737 93.2026 29.0004 92.936 28.4404C92.6693 27.9071 92.4426 27.3204 92.256 26.6804C92.096 26.0404 91.976 25.6137 91.896 25.4004L91.456 24.0804L90.656 24.2004L87.336 24.5604C87.016 24.6137 86.7493 24.5337 86.536 24.3204C86.3226 24.1337 86.1893 23.9204 86.136 23.6804C86.1093 23.4404 86.1626 23.2137 86.296 23.0004C86.4293 22.7604 86.6693 22.6137 87.016 22.5604L90.696 22.1604ZM95.936 23.6004L93.616 23.8404C93.7493 24.1871 93.8693 24.5204 93.976 24.8404C94.1093 25.1871 94.2426 25.5471 94.376 25.9204L95.936 23.6004Z" fill="currentColor"/>
    <path d="M68.3697 18.88C68.503 18.9333 68.623 19 68.7297 19.08C68.8363 19.1333 68.9297 19.2 69.0097 19.28C69.543 19.2266 70.0763 19.3066 70.6097 19.52C71.143 19.8133 71.423 20.1333 71.4497 20.48C71.4763 20.8 71.383 21.1466 71.1697 21.52C71.7563 21.44 72.343 21.3066 72.9297 21.12C73.543 20.9333 74.143 20.72 74.7297 20.48C75.3163 20.24 75.8897 20 76.4497 19.76C77.0363 19.52 77.5963 19.32 78.1297 19.16C78.423 19.08 78.7297 19 79.0497 18.92C79.3963 18.84 79.7163 18.9066 80.0097 19.12C80.2497 19.3066 80.3963 19.5066 80.4497 19.72C80.503 19.9333 80.4897 20.1466 80.4097 20.36C80.3297 20.5466 80.1963 20.72 80.0097 20.88C79.823 21.04 79.6097 21.1333 79.3697 21.16C78.5163 21.2933 77.6763 21.5466 76.8497 21.92C76.023 22.2666 75.2097 22.5733 74.4097 22.84C74.0363 22.9733 73.6363 23.12 73.2097 23.28C72.783 23.44 72.343 23.5733 71.8897 23.68C71.4363 23.7866 70.983 23.84 70.5297 23.84C70.0763 23.8666 69.6497 23.8133 69.2497 23.68C68.7963 23.4666 68.503 23.2 68.3697 22.88C68.263 22.5333 68.2763 22.1733 68.4097 21.8C67.8763 21.88 67.343 22 66.8097 22.16C66.1163 22.3733 65.423 22.6133 64.7297 22.88C64.063 23.1466 63.383 23.3466 62.6897 23.48C62.2363 23.56 61.7697 23.56 61.2897 23.48C60.8097 23.4 60.4497 23.1333 60.2097 22.68C59.9163 22.12 59.903 21.6 60.1697 21.12C60.4097 20.6133 60.7963 20.1866 61.3297 19.84C61.8363 19.4666 62.3963 19.1733 63.0097 18.96C63.623 18.72 64.1297 18.5733 64.5297 18.52C65.1963 18.44 65.8497 18.44 66.4897 18.52C67.1297 18.5733 67.7563 18.6933 68.3697 18.88ZM63.0897 21.24C63.3563 21.1866 63.623 21.12 63.8897 21.04C64.1563 20.96 64.423 20.8666 64.6897 20.76C64.0497 20.84 63.5163 21 63.0897 21.24Z" fill="currentColor"/>
    <path d="M62.88 21.0396C61.9733 21.0396 61.0533 21.173 60.12 21.4396C59.2133 21.7063 58.3067 22.0396 57.4 22.4396C56.52 22.813 55.64 23.213 54.76 23.6396C53.9066 24.093 53.08 24.493 52.28 24.8396C51.24 25.293 50.2 25.733 49.16 26.1596C48.12 26.613 47.04 26.973 45.92 27.2397C45.4666 27.3463 44.9733 27.413 44.44 27.4396C43.9333 27.4663 43.48 27.333 43.08 27.0396C42.6 26.7196 42.32 26.3063 42.24 25.7996C42.16 25.293 42.2 24.7463 42.36 24.1596C42.5467 23.573 42.8133 22.973 43.16 22.3596C43.5333 21.7196 43.92 21.1197 44.32 20.5597C44.7466 19.973 45.1466 19.453 45.52 18.9996C45.8933 18.5196 46.1866 18.1463 46.4 17.8797C47.1466 16.8663 47.8933 15.853 48.64 14.8396C49.4133 13.7996 50.1733 12.7596 50.92 11.7196C51.4 11.053 51.9066 10.3596 52.44 9.63965C53 8.89298 53.4266 8.11965 53.72 7.31965C53.5066 7.37298 53.3066 7.43965 53.12 7.51965C52.96 7.57298 52.8 7.62632 52.64 7.67965C51.1733 8.29298 49.7733 9.05298 48.44 9.95965C47.1333 10.8663 45.84 11.7863 44.56 12.7196C43.2533 13.6796 41.96 14.6663 40.68 15.6796C39.4 16.693 38.12 17.7063 36.84 18.7197C35.56 19.733 34.2533 20.733 32.92 21.7197C31.6133 22.6797 30.2666 23.573 28.88 24.3997C28.64 24.5597 28.2933 24.733 27.84 24.9196C27.4133 25.1063 26.9866 25.2263 26.56 25.2796C26.1333 25.333 25.7733 25.253 25.48 25.0396C25.1866 24.853 25.0666 24.453 25.12 23.8396C25.1466 23.3063 25.3066 22.773 25.6 22.2397C25.92 21.6797 26.28 21.133 26.68 20.5996C27.08 20.0663 27.4933 19.5596 27.92 19.0796C28.3733 18.5996 28.76 18.173 29.08 17.7996C30.1733 16.4663 31.2533 15.1596 32.32 13.8796C33.3866 12.573 34.44 11.2396 35.48 9.87965C36.3333 8.75965 37.2 7.61298 38.08 6.43965C38.9867 5.26631 39.7066 3.99965 40.24 2.63965C39.3866 2.71965 38.5066 2.91965 37.6 3.23965C36.72 3.53298 35.84 3.87965 34.96 4.27965C34.1066 4.67965 33.2667 5.10632 32.44 5.55965C31.6133 5.98632 30.84 6.38631 30.12 6.75965C25.9066 8.99965 21.88 11.3996 18.04 13.9596C16.12 15.2396 14.24 16.5596 12.4 17.9196C10.5866 19.253 8.83998 20.6796 7.15998 22.1996C6.46665 22.8663 5.77331 23.5463 5.07998 24.2397C4.41331 24.933 3.82665 25.7063 3.31998 26.5597C3.18665 26.773 3.01331 27.0796 2.79998 27.4796C2.61331 27.9063 2.59998 28.2663 2.75998 28.5597C2.97331 28.8797 3.11998 29.213 3.19998 29.5597C3.27998 29.933 3.09331 30.2396 2.63998 30.4796C2.31998 30.6396 2.02665 30.6663 1.75998 30.5597C1.51998 30.453 1.29331 30.2796 1.07998 30.0396C0.893313 29.7996 0.746646 29.5197 0.639979 29.1996C0.533313 28.8796 0.466646 28.5996 0.439979 28.3596C0.413313 27.853 0.479979 27.3463 0.639979 26.8396C0.799979 26.3596 1.01331 25.8797 1.27998 25.3997C1.57331 24.9463 1.89331 24.5063 2.23998 24.0797C2.58665 23.6797 2.91998 23.3063 3.23998 22.9596C4.73331 21.3063 6.34665 19.7863 8.07998 18.3997C9.81331 17.013 11.5733 15.6796 13.36 14.3996C17.2266 11.653 21.24 9.10631 25.4 6.75965C27.5066 5.55965 29.6533 4.41298 31.84 3.31965C34.0533 2.19965 36.3333 1.33298 38.68 0.719648C38.92 0.639649 39.2133 0.572982 39.56 0.519648C39.9067 0.439649 40.24 0.399649 40.56 0.399649C40.9066 0.372981 41.2267 0.399648 41.52 0.479649C41.84 0.55965 42.1067 0.732983 42.32 0.999649C42.6933 1.45298 42.8266 1.97298 42.72 2.55965C42.6133 3.14631 42.4 3.74631 42.08 4.35965C41.76 4.94631 41.4 5.50631 41 6.03965C40.6 6.57298 40.28 6.99965 40.04 7.31965C38.9733 8.81298 37.8666 10.253 36.72 11.6396C35.6 13.0263 34.4667 14.4263 33.32 15.8396C32.76 16.5596 32.1866 17.2796 31.6 17.9996C31.04 18.693 30.4933 19.3996 29.96 20.1196C29.6933 20.4663 29.4133 20.813 29.12 21.1596C28.8533 21.5063 28.5866 21.8663 28.32 22.2397C29.2 21.733 30.04 21.133 30.84 20.4396C31.6666 19.7196 32.4533 19.0796 33.2 18.5196C34.48 17.533 35.7467 16.5596 37 15.5996C38.2533 14.613 39.5333 13.6263 40.84 12.6396C42.12 11.7063 43.3866 10.7863 44.64 9.87965C45.92 8.94631 47.24 8.06632 48.6 7.23965C49.3733 6.78632 50.16 6.34632 50.96 5.91965C51.7867 5.49298 52.64 5.21298 53.52 5.07965C53.8933 5.02632 54.2533 5.01298 54.6 5.03965C54.9733 5.03965 55.3067 5.17298 55.6 5.43965C56.0533 5.83965 56.24 6.33298 56.16 6.91965C56.1067 7.47965 55.92 8.06632 55.6 8.67965C55.3067 9.26632 54.9466 9.83965 54.52 10.3996C54.12 10.933 53.8 11.3596 53.56 11.6796C52.7067 12.8796 51.8266 14.053 50.92 15.1996C50.04 16.3196 49.1733 17.4796 48.32 18.6796C47.52 19.773 46.76 20.893 46.04 22.0396C45.9333 22.1996 45.7867 22.413 45.6 22.6796C45.44 22.9196 45.2666 23.173 45.08 23.4396C44.92 23.733 44.7733 24.0263 44.64 24.3196C44.5333 24.613 44.4667 24.8796 44.44 25.1196C45.5333 24.9063 46.6 24.613 47.64 24.2397C48.7066 23.8663 49.76 23.453 50.8 22.9996C51.84 22.573 52.88 22.1196 53.92 21.6396C54.96 21.1596 56 20.7196 57.04 20.3196C57.92 19.9463 58.8133 19.613 59.72 19.3196C60.6533 19.0263 61.6 18.853 62.56 18.7996C62.96 18.773 63.2667 18.8796 63.48 19.1196C63.72 19.333 63.8533 19.5863 63.88 19.8797C63.9333 20.1463 63.88 20.3996 63.72 20.6396C63.56 20.8796 63.28 21.013 62.88 21.0396Z" fill="currentColor"/>
</svg>
