<svg viewBox="0 0 24 20" fill="none" xmlns="http://www.w3.org/2000/svg">
    <path d="M7.548 19.7519C16.604 19.7519 21.558 12.2489 21.558 5.74194C21.558 5.52894 21.558 5.31694 21.543 5.10594C22.5069 4.4086 23.3389 3.54511 24 2.55594C23.1015 2.9546 22.1482 3.21618 21.172 3.33194C22.1997 2.71624 22.9687 1.74822 23.336 0.607944C22.3697 1.18139 21.3124 1.58553 20.21 1.80294C19.4675 1.01349 18.4856 0.490727 17.4161 0.315555C16.3466 0.140383 15.2492 0.322564 14.2937 0.833908C13.3382 1.34525 12.5779 2.15725 12.1303 3.14426C11.6828 4.13127 11.573 5.23826 11.818 6.29394C9.8604 6.19583 7.94532 5.68716 6.19705 4.80097C4.44877 3.91477 2.90639 2.67085 1.67 1.14994C1.04049 2.23401 0.84778 3.51723 1.1311 4.73838C1.41442 5.95953 2.15247 7.02681 3.195 7.72294C2.41129 7.69954 1.64472 7.48792 0.96 7.10594V7.16894C0.96031 8.30575 1.3538 9.40745 2.07373 10.2872C2.79367 11.167 3.79573 11.7707 4.91 11.9959C4.18515 12.1934 3.42469 12.2221 2.687 12.0799C3.0016 13.0584 3.61411 13.914 4.43888 14.5272C5.26365 15.1404 6.25944 15.4805 7.287 15.4999C6.26601 16.3021 5.09691 16.8952 3.84655 17.2452C2.59619 17.5953 1.28909 17.6954 0 17.5399C2.25155 18.9853 4.87147 19.7521 7.547 19.7489" fill="currentColor"/>
</svg>
